<svg width="43" height="43" viewBox="0 0 43 43" fill="none" xmlns="http://www.w3.org/2000/svg">
<path d="M0.213933 32.0896C0.213932 26.1821 5.00292 21.3931 10.9104 21.3931C16.818 21.3931 21.607 26.1821 21.607 32.0896C21.607 37.9971 16.818 42.7861 10.9104 42.7861C5.00293 42.7861 0.213934 37.9971 0.213933 32.0896Z" fill="#9F4040"/>
<path fill-rule="evenodd" clip-rule="evenodd" d="M21.607 42.7686C21.8908 42.7802 22.176 42.7861 22.4627 42.7861C33.8051 42.7861 43 33.5912 43 22.2488C43 21.9621 42.9941 21.6769 42.9825 21.3931L21.607 21.3931L21.607 42.7686Z" fill="#59D5DD"/>
<path d="M21.607 0L21.607 21.393L0.213933 21.393L0.213934 -9.35119e-07L21.607 0Z" fill="#F2C94C"/>
<path d="M0 3.03465e-06C5.3713 10.6387 16.7853 18.6948 21.8209 21.393L2.97515e-06 21.393L0 3.03465e-06Z" fill="#3B77D2"/>
</svg>
