<svg width="43" height="43" viewBox="0 0 43 43" fill="none" xmlns="http://www.w3.org/2000/svg">
<path d="M43 10.75C43 16.6871 38.1871 21.5 32.25 21.5C26.3129 21.5 21.5 16.6871 21.5 10.75C21.5 4.81294 26.3129 0 32.25 0C38.1871 0 43 4.81294 43 10.75Z" fill="#6FCF97"/>
<path fill-rule="evenodd" clip-rule="evenodd" d="M21.5 0.0175905C21.2148 0.00590041 20.9281 -9.14796e-07 20.64 -9.02203e-07C9.24084 -4.0393e-07 -5.35865e-07 9.24084 -3.75918e-08 20.64C-2.49993e-08 20.9281 0.00590203 21.2148 0.0175918 21.5L21.5 21.5L21.5 0.0175905Z" fill="#F7797A"/>
<path d="M21.5 21.5H43V43H21.5V21.5Z" fill="#E15252"/>
<path d="M21.93 43C32.408 37.7077 40.3425 26.4615 43 21.5V43H21.93Z" fill="#F2C94C"/>
</svg>
