<svg width="43" height="43" viewBox="0 0 43 43" fill="none" xmlns="http://www.w3.org/2000/svg">
<path d="M43 32.25C43 38.1871 38.1871 43 32.25 43C26.3129 43 21.5 38.1871 21.5 32.25C21.5 26.3129 26.3129 21.5 32.25 21.5C38.1871 21.5 43 26.3129 43 32.25Z" fill="#56CCF2"/>
<path d="M21.5 0H43V21.5H21.5V0Z" fill="#3A9FBF"/>
<path fill-rule="evenodd" clip-rule="evenodd" d="M42.9824 21.5C42.9941 21.2148 43 20.9281 43 20.64C43 9.24084 33.7592 0 22.36 0C22.0719 0 21.7852 0.00590204 21.5 0.0175918V21.5H42.9824Z" fill="#56CCF2"/>
<path d="M0.429993 43C10.908 37.7077 18.8425 26.4615 21.5 21.5V43H0.429993Z" fill="#0F3460"/>
<path d="M0 21.5H21.5V43H0V21.5Z" fill="#67DF99"/>
<path d="M0 43C10.6919 37.7077 18.7883 26.4615 21.5 21.5V43H0Z" fill="#F2C94C"/>
</svg>
