<svg width="87" height="86" viewBox="0 0 87 86" fill="none" xmlns="http://www.w3.org/2000/svg">
<g filter="url(#filter0_d)">
<path d="M40.5986 6.02428C40.7084 2.36528 43.7864 -0.568489 47.3741 0.158443C52.8958 1.27722 58.1366 3.58428 62.7197 6.94989C69.0932 11.6301 73.8941 18.1365 76.4864 25.6068C79.0786 33.0771 79.3399 41.1587 77.2355 48.7809C75.1312 56.403 70.7605 63.2059 64.7027 68.288C58.6449 73.3701 51.1858 76.4917 43.3139 77.239C35.442 77.9863 27.5288 76.3241 20.6229 72.4727C13.7169 68.6213 8.14425 62.7624 4.6432 55.6724C2.12556 50.5739 0.764662 45.0119 0.622792 39.3798C0.53061 35.7203 3.95477 33.1993 7.57716 33.7271C11.1995 34.255 13.6186 37.6546 14.03 41.2921C14.3629 44.2359 15.203 47.1169 16.5294 49.803C18.8409 54.484 22.5202 58.3522 27.0797 60.8951C31.6392 63.4379 36.8638 64.5353 42.0611 64.0419C47.2583 63.5485 52.183 61.4876 56.1826 58.1322C60.1822 54.7768 63.0679 50.2854 64.4572 45.253C65.8466 40.2206 65.6741 34.8848 63.9626 29.9527C62.2511 25.0205 59.0814 20.7248 54.8734 17.6348C52.4588 15.8616 49.7678 14.5335 46.9266 13.6939C43.416 12.6565 40.4887 9.68328 40.5986 6.02428Z" fill="#0F3460"/>
</g>
<g filter="url(#filter1_d)">
<path d="M32.6434 34.0277L28.357 43.6384H26.9779L31.2501 34.3689H25.6486V33.2884H32.6434V34.0277Z" fill="white"/>
<path d="M35.4683 38.4492L35.9943 33.2884H41.2973V34.504H37.1104L36.7976 37.3261C37.3047 37.0275 37.8805 36.8782 38.525 36.8782C39.468 36.8782 40.2168 37.191 40.7713 37.8166C41.3257 38.4374 41.603 39.2785 41.603 40.3401C41.603 41.4064 41.3139 42.2475 40.7357 42.8636C40.1623 43.4749 39.359 43.7806 38.3259 43.7806C37.4113 43.7806 36.6649 43.5271 36.0868 43.02C35.5086 42.5129 35.1792 41.8115 35.0987 40.9159H36.3427C36.4232 41.5082 36.6341 41.9561 36.9753 42.2594C37.3165 42.5579 37.7667 42.7072 38.3259 42.7072C38.9373 42.7072 39.4159 42.4987 39.7619 42.0817C40.1125 41.6646 40.2879 41.0888 40.2879 40.3543C40.2879 39.6624 40.0983 39.1079 39.7192 38.6909C39.3448 38.2691 38.8449 38.0583 38.2193 38.0583C37.6459 38.0583 37.1957 38.1838 36.8687 38.435L36.5204 38.7193L35.4683 38.4492Z" fill="white"/>
<path d="M43.6531 35.2788C43.6531 34.658 43.8497 34.1462 44.2431 33.7434C44.6411 33.3406 45.1506 33.1392 45.7714 33.1392C46.4017 33.1392 46.9111 33.3429 47.2997 33.7505C47.6931 34.1533 47.8897 34.677 47.8897 35.3215V35.8262C47.8897 36.4517 47.6907 36.9635 47.2926 37.3616C46.8993 37.755 46.3969 37.9516 45.7856 37.9516C45.1695 37.9516 44.6601 37.755 44.2573 37.3616C43.8545 36.9635 43.6531 36.4351 43.6531 35.7764V35.2788ZM44.634 35.8262C44.634 36.1958 44.7383 36.5015 44.9468 36.7432C45.1553 36.9801 45.4349 37.0986 45.7856 37.0986C46.1221 37.0986 46.3922 36.9825 46.596 36.7503C46.8045 36.5181 46.9088 36.2006 46.9088 35.7977V35.2788C46.9088 34.9092 46.8069 34.6035 46.6031 34.3618C46.3993 34.1201 46.1221 33.9993 45.7714 33.9993C45.4207 33.9993 45.1435 34.1201 44.9397 34.3618C44.7359 34.6035 44.634 34.9187 44.634 35.3073V35.8262ZM48.693 41.1007C48.693 40.4799 48.8897 39.9704 49.283 39.5724C49.6811 39.1695 50.1905 38.9681 50.8113 38.9681C51.4321 38.9681 51.9416 39.1672 52.3397 39.5653C52.7377 39.9633 52.9368 40.4917 52.9368 41.1505V41.6552C52.9368 42.276 52.7377 42.7878 52.3397 43.1906C51.9463 43.5887 51.4416 43.7877 50.8256 43.7877C50.2095 43.7877 49.7 43.591 49.2972 43.1977C48.8944 42.7996 48.693 42.2712 48.693 41.6125V41.1007ZM49.674 41.6552C49.674 42.0295 49.7782 42.3376 49.9867 42.5793C50.1953 42.8162 50.4749 42.9347 50.8256 42.9347C51.1668 42.9347 51.4393 42.8186 51.643 42.5864C51.8468 42.3494 51.9487 42.0295 51.9487 41.6267V41.1007C51.9487 40.7263 51.8444 40.4206 51.6359 40.1837C51.4321 39.9467 51.1573 39.8283 50.8113 39.8283C50.4749 39.8283 50.2 39.9467 49.9867 40.1837C49.7782 40.4159 49.674 40.7311 49.674 41.1291V41.6552ZM46.0842 42.8565L45.3378 42.3873L50.3919 34.2978L51.1383 34.767L46.0842 42.8565Z" fill="white"/>
</g>
<defs>
<filter id="filter0_d" x="0.620972" y="0.0471191" width="86.0216" height="85.3665" filterUnits="userSpaceOnUse" color-interpolation-filters="sRGB">
<feFlood flood-opacity="0" result="BackgroundImageFix"/>
<feColorMatrix in="SourceAlpha" type="matrix" values="0 0 0 0 0 0 0 0 0 0 0 0 0 0 0 0 0 0 127 0"/>
<feOffset dx="4" dy="4"/>
<feGaussianBlur stdDeviation="2"/>
<feColorMatrix type="matrix" values="0 0 0 0 0 0 0 0 0 0 0 0 0 0 0 0 0 0 0.05 0"/>
<feBlend mode="normal" in2="BackgroundImageFix" result="effect1_dropShadow"/>
<feBlend mode="normal" in="SourceGraphic" in2="effect1_dropShadow" result="shape"/>
</filter>
<filter id="filter1_d" x="25.6486" y="33.1392" width="35.2882" height="18.6486" filterUnits="userSpaceOnUse" color-interpolation-filters="sRGB">
<feFlood flood-opacity="0" result="BackgroundImageFix"/>
<feColorMatrix in="SourceAlpha" type="matrix" values="0 0 0 0 0 0 0 0 0 0 0 0 0 0 0 0 0 0 127 0"/>
<feOffset dx="4" dy="4"/>
<feGaussianBlur stdDeviation="2"/>
<feColorMatrix type="matrix" values="0 0 0 0 0 0 0 0 0 0 0 0 0 0 0 0 0 0 0.05 0"/>
<feBlend mode="normal" in2="BackgroundImageFix" result="effect1_dropShadow"/>
<feBlend mode="normal" in="SourceGraphic" in2="effect1_dropShadow" result="shape"/>
</filter>
</defs>
</svg>
