<svg width="142" height="142" viewBox="0 0 142 142" fill="none" xmlns="http://www.w3.org/2000/svg">
<g filter="url(#filter0_d)">
<path d="M67 11.3822C67 5.09599 72.1323 -0.0984567 78.328 0.964414C90.3775 3.03149 101.709 8.3715 111.032 16.5009C123.234 27.1403 131.171 41.8378 133.376 57.876C135.58 73.9141 131.904 90.2081 123.025 103.745C114.146 117.282 100.667 127.147 85.0781 131.515C69.4896 135.883 52.8467 134.459 38.2266 127.507C23.6065 120.555 11.9982 108.544 5.5479 93.6953C-0.902386 78.8469 -1.75832 62.1651 3.13837 46.7345C6.87988 34.944 13.7866 24.4934 23.0075 16.4661C27.7487 12.3385 34.8329 14.1097 38.0994 19.4806V19.4806C41.3659 24.8515 39.5152 31.7735 35.1525 36.2994C30.4612 41.1661 26.9115 47.081 24.8365 53.62C21.6035 63.8078 22.1686 74.8217 26.4273 84.6251C30.686 94.4285 38.3502 102.358 48.0029 106.949C57.6555 111.539 68.6437 112.479 78.9357 109.595C89.2278 106.711 98.1275 100.198 103.989 91.2604C109.851 82.3227 112.279 71.5649 110.823 60.976C109.368 50.3871 104.128 40.6833 96.0716 33.6589C90.9007 29.1502 84.7944 25.9411 78.2573 24.2207C72.1781 22.6209 67 17.6684 67 11.3822V11.3822Z" fill="#E94560"/>
</g>
<g filter="url(#filter1_d)">
<path d="M52.1885 68.1875C51.7165 68.749 51.1509 69.2007 50.4917 69.5425C49.8407 69.8843 49.1245 70.0552 48.3433 70.0552C47.3179 70.0552 46.4227 69.8029 45.6577 69.2983C44.9009 68.7938 44.3149 68.0858 43.8999 67.1743C43.4849 66.2547 43.2773 65.2415 43.2773 64.1348C43.2773 62.9466 43.5011 61.8765 43.9487 60.9243C44.4045 59.9722 45.0474 59.2438 45.8774 58.7393C46.7075 58.2347 47.6759 57.9824 48.7827 57.9824C50.5405 57.9824 51.924 58.6416 52.9331 59.96C53.9504 61.2702 54.459 63.0605 54.459 65.3311V65.9902C54.459 69.4489 53.7754 71.9757 52.4082 73.5708C51.041 75.1577 48.978 75.9715 46.2192 76.0122H45.7798V74.1079H46.2559C48.1195 74.0754 49.5518 73.5911 50.5527 72.6553C51.5537 71.7113 52.099 70.222 52.1885 68.1875ZM48.7095 68.1875C49.4663 68.1875 50.1621 67.9556 50.7969 67.4917C51.4398 67.0278 51.9077 66.4541 52.2007 65.7705V64.8672C52.2007 63.3861 51.8792 62.1816 51.2363 61.2539C50.5934 60.3262 49.7796 59.8623 48.7949 59.8623C47.8021 59.8623 47.0046 60.2448 46.4023 61.0098C45.8001 61.7666 45.499 62.7676 45.499 64.0127C45.499 65.2253 45.7879 66.2262 46.3657 67.0156C46.9517 67.7969 47.7329 68.1875 48.7095 68.1875ZM69.9668 68.4194C69.9668 71.0643 69.5151 73.0296 68.6118 74.3154C67.7085 75.6012 66.2965 76.2441 64.376 76.2441C62.4798 76.2441 61.076 75.6175 60.1646 74.3643C59.2531 73.1029 58.7811 71.223 58.7485 68.7246V65.7095C58.7485 63.0972 59.2002 61.1562 60.1035 59.8867C61.0068 58.6172 62.4229 57.9824 64.3516 57.9824C66.264 57.9824 67.6719 58.5968 68.5752 59.8257C69.4785 61.0464 69.9424 62.9344 69.9668 65.4897V68.4194ZM67.7085 65.3311C67.7085 63.4186 67.4399 62.027 66.9028 61.1562C66.3657 60.2773 65.5153 59.8379 64.3516 59.8379C63.196 59.8379 62.3537 60.2733 61.8247 61.144C61.2957 62.0148 61.0231 63.3535 61.0068 65.1602V68.7734C61.0068 70.694 61.2835 72.1141 61.8369 73.0337C62.3984 73.9451 63.2448 74.4009 64.376 74.4009C65.4909 74.4009 66.3169 73.9696 66.854 73.1069C67.3993 72.2443 67.6841 70.8853 67.7085 69.0298V65.3311ZM73.9146 61.6445C73.9146 60.5785 74.2523 59.6995 74.9277 59.0078C75.6113 58.3161 76.4862 57.9702 77.5522 57.9702C78.6346 57.9702 79.5094 58.3201 80.1768 59.02C80.8522 59.7118 81.1899 60.611 81.1899 61.7178V62.5845C81.1899 63.6587 80.8481 64.5376 80.1646 65.2212C79.4891 65.8966 78.6265 66.2344 77.5767 66.2344C76.5187 66.2344 75.6439 65.8966 74.9521 65.2212C74.2604 64.5376 73.9146 63.6302 73.9146 62.499V61.6445ZM75.5991 62.5845C75.5991 63.2192 75.7782 63.7441 76.1362 64.1592C76.4943 64.5661 76.9744 64.7695 77.5767 64.7695C78.1545 64.7695 78.6183 64.5701 78.9683 64.1714C79.3263 63.7726 79.5054 63.2274 79.5054 62.5356V61.6445C79.5054 61.0098 79.3304 60.4849 78.9805 60.0698C78.6305 59.6548 78.1545 59.4473 77.5522 59.4473C76.95 59.4473 76.474 59.6548 76.124 60.0698C75.7741 60.4849 75.5991 61.026 75.5991 61.6934V62.5845ZM82.5693 71.6421C82.5693 70.576 82.9071 69.7012 83.5825 69.0176C84.2661 68.3258 85.141 67.98 86.207 67.98C87.2731 67.98 88.1479 68.3218 88.8315 69.0054C89.5151 69.689 89.8569 70.5964 89.8569 71.7275V72.5942C89.8569 73.6603 89.5151 74.5392 88.8315 75.231C88.1561 75.9146 87.2894 76.2563 86.2314 76.2563C85.1735 76.2563 84.2987 75.9186 83.6069 75.2432C82.9152 74.5596 82.5693 73.6522 82.5693 72.521V71.6421ZM84.2539 72.5942C84.2539 73.2371 84.4329 73.7661 84.791 74.1812C85.1491 74.5881 85.6292 74.7915 86.2314 74.7915C86.8174 74.7915 87.2853 74.5921 87.6353 74.1934C87.9852 73.7865 88.1602 73.2371 88.1602 72.5454V71.6421C88.1602 70.9992 87.9811 70.4743 87.623 70.0674C87.2731 69.6605 86.8011 69.457 86.207 69.457C85.6292 69.457 85.1572 69.6605 84.791 70.0674C84.4329 70.4661 84.2539 71.0073 84.2539 71.6909V72.5942ZM78.0894 74.6572L76.8076 73.8516L85.4868 59.96L86.7686 60.7656L78.0894 74.6572Z" fill="white"/>
</g>
<defs>
<filter id="filter0_d" x="-2.28882e-05" y="0.825684" width="142" height="141.174" filterUnits="userSpaceOnUse" color-interpolation-filters="sRGB">
<feFlood flood-opacity="0" result="BackgroundImageFix"/>
<feColorMatrix in="SourceAlpha" type="matrix" values="0 0 0 0 0 0 0 0 0 0 0 0 0 0 0 0 0 0 127 0"/>
<feOffset dx="4" dy="4"/>
<feGaussianBlur stdDeviation="2"/>
<feColorMatrix type="matrix" values="0 0 0 0 0 0 0 0 0 0 0 0 0 0 0 0 0 0 0.05 0"/>
<feBlend mode="normal" in2="BackgroundImageFix" result="effect1_dropShadow"/>
<feBlend mode="normal" in="SourceGraphic" in2="effect1_dropShadow" result="shape"/>
</filter>
<filter id="filter1_d" x="43.2773" y="57.9702" width="54.5796" height="26.2861" filterUnits="userSpaceOnUse" color-interpolation-filters="sRGB">
<feFlood flood-opacity="0" result="BackgroundImageFix"/>
<feColorMatrix in="SourceAlpha" type="matrix" values="0 0 0 0 0 0 0 0 0 0 0 0 0 0 0 0 0 0 127 0"/>
<feOffset dx="4" dy="4"/>
<feGaussianBlur stdDeviation="2"/>
<feColorMatrix type="matrix" values="0 0 0 0 0 0 0 0 0 0 0 0 0 0 0 0 0 0 0.05 0"/>
<feBlend mode="normal" in2="BackgroundImageFix" result="effect1_dropShadow"/>
<feBlend mode="normal" in="SourceGraphic" in2="effect1_dropShadow" result="shape"/>
</filter>
</defs>
</svg>
