<svg width="1152" height="649" viewBox="0 0 1152 649" fill="none" xmlns="http://www.w3.org/2000/svg">
<g clip-path="url(#clip0)">
<circle opacity="0.3" cx="549" cy="103" r="13.5" stroke="#376AA7" stroke-width="3"/>
<path opacity="0.3" d="M198.665 315.75L208.624 333C209.587 334.667 208.384 336.75 206.459 336.75H186.541C184.616 336.75 183.413 334.667 184.376 333L194.335 315.75C195.297 314.083 197.703 314.083 198.665 315.75Z" stroke="#376AA7" stroke-width="3"/>
<path opacity="0.1" d="M1016 525C1016 533.837 1008.84 541 1000 541C995.401 541 990.601 539.679 987.889 537.061C985.086 534.356 984 529.899 984 525C984 516.163 991.163 509 1000 509C1005.07 509 1008.84 509.164 1012.59 512.914C1016.03 516.361 1016.02 519.545 1016 524.004C1016 524.329 1016 524.661 1016 525Z" stroke="#376AA7" stroke-width="4"/>
<rect opacity="0.3" x="785.121" y="536.213" width="27" height="27" rx="4.5" transform="rotate(-45 785.121 536.213)" stroke="#376AA7" stroke-width="3"/>
<path opacity="0.3" fill-rule="evenodd" clip-rule="evenodd" d="M359.213 148.213L353.213 154.213C352.661 154.766 352.661 155.661 353.213 156.213L359.213 162.213C359.765 162.766 360.661 162.766 361.213 162.213L367.213 156.213C367.766 155.661 367.766 154.766 367.213 154.213L361.213 148.213C360.661 147.661 359.765 147.661 359.213 148.213ZM352.213 153.213C351.109 154.318 351.109 156.109 352.213 157.213L358.213 163.213C359.318 164.318 361.109 164.318 362.213 163.213L368.213 157.213C369.318 156.109 369.318 154.318 368.213 153.213L362.213 147.213C361.109 146.109 359.318 146.109 358.213 147.213L352.213 153.213Z" fill="#376AA7"/>
<path opacity="0.3" fill-rule="evenodd" clip-rule="evenodd" d="M949.4 70.8L921.8 98.4C919.26 100.941 919.26 105.059 921.8 107.6L949.4 135.2C951.941 137.741 956.06 137.741 958.6 135.2L986.2 107.6C988.741 105.059 988.741 100.941 986.2 98.4L958.6 70.8C956.06 68.2594 951.941 68.2594 949.4 70.8ZM917.2 93.8C912.119 98.881 912.119 107.119 917.2 112.2L944.8 139.8C949.881 144.881 958.119 144.881 963.2 139.8L990.8 112.2C995.881 107.119 995.881 98.881 990.8 93.8L963.2 66.2C958.119 61.1189 949.881 61.1189 944.8 66.2L917.2 93.8Z" fill="#376AA7"/>
<path opacity="0.3" fill-rule="evenodd" clip-rule="evenodd" d="M360.6 487.2L346.2 501.6C344.875 502.925 344.875 505.075 346.2 506.4L360.6 520.8C361.925 522.125 364.074 522.125 365.4 520.8L379.8 506.4C381.125 505.075 381.125 502.925 379.8 501.6L365.4 487.2C364.074 485.875 361.925 485.875 360.6 487.2ZM343.8 499.2C341.149 501.851 341.149 506.149 343.8 508.8L358.2 523.2C360.851 525.851 365.149 525.851 367.8 523.2L382.2 508.8C384.851 506.149 384.851 501.851 382.2 499.2L367.8 484.8C365.149 482.149 360.851 482.149 358.2 484.8L343.8 499.2Z" fill="#376AA7"/>
<circle cx="1004.5" cy="287.5" r="416.5" fill="#0C2E57" fill-opacity="0.5"/>
</g>
<defs>
<clipPath id="clip0">
<rect width="1152" height="649" fill="white"/>
</clipPath>
</defs>
</svg>
