<svg width="639" height="420" viewBox="0 0 639 420" fill="none" xmlns="http://www.w3.org/2000/svg">
<path opacity="0.65" d="M635.4 299.655C635.4 267.345 613.125 227.835 577.17 188.325C575.865 89.6851 483.075 51.6601 369.855 41.8951C314.325 17.0101 257.22 1.3501 206.235 1.3501C122.175 1.3501 51.3 44.5501 0 99.9901V391.905C7.47 395.955 15.3 399.87 23.4 403.65C62.415 447.255 123.705 470.79 194.67 475.2H244.665C263.385 474.12 282.555 471.825 301.95 468.36C310.59 466.83 319.05 465.03 327.33 463.005C494.28 458.055 635.4 403.11 635.4 299.655Z" fill="#0D315C"/>
<path d="M302.4 463.365C310.77 463.365 319.095 463.23 327.33 463.005C483.03 424.935 577.17 303.975 577.17 190.44V188.325C526.95 133.11 450.09 77.8499 369.855 41.8949C347.805 40.0049 325.035 39.1499 301.95 39.1499C189.225 39.1499 52.2 86.7149 0 186.615V370.08C6.48 382.365 14.355 393.57 23.4 403.65C101.205 439.92 207.135 463.365 302.4 463.365Z" fill="#0D315C"/>
</svg>
