<svg width="1152" height="350" viewBox="0 0 1152 350" fill="none" xmlns="http://www.w3.org/2000/svg">
<path opacity="0.65" d="M1000.03 53.3623C988.515 51.718 977.76 49.8046 967.905 47.8314C916.47 37.4273 858.555 23.8242 787.005 32.7634C762.795 35.783 741.69 41.0448 720.675 46.4861C694.35 44.0644 667.215 41.7025 638.37 39.8489C588.6 36.6799 545.085 46.7551 495.27 53.5716C423.315 34.7366 374.985 1.43138 291.69 0.0262213C210.375 -1.34904 109.08 51.8376 0 50.1933V298.667H1152V14.317C1116.14 33.5706 1058.22 46.5458 1000.03 53.3623Z" fill="#0D315C"/>
<path d="M1000.03 62.825C965.385 67.55 930.645 69.72 900.405 69.265C838.125 68.39 781.695 61.355 720.63 54.74C679.545 67.2 638.82 80.605 576 77.28C545.13 75.67 518.895 70.245 495.225 63C468.45 67.27 439.875 70.455 407.565 69.475C329.265 67.165 309.015 41.685 240.165 42.665C179.145 43.575 95.715 83.405 0 76.51V350H1152V58.275C1098.18 72.835 1043.78 70.105 1000.03 62.825Z" fill="#0D315C"/>
</svg>
