<svg width="1152" height="320" viewBox="0 0 1152 320" fill="none" xmlns="http://www.w3.org/2000/svg">
<g clip-path="url(#clip0)">
<path opacity="0.65" d="M1361.95 159.372C1337.9 161.794 1292.72 155.927 1222.58 118.682C1152.44 81.4357 1051.26 -11.7867 924.964 1.1848C890.862 4.68333 861.815 12.3801 836.212 22.9833C828.305 23.7369 820.129 24.7057 811.63 25.8898C702.761 40.6374 654.459 92.4695 541.448 180.309C487.175 222.561 410.418 250.926 317.685 265.297C240.767 255.932 161.321 236.77 110.705 238.547C57.7228 240.377 14.7453 250.657 -15 258.569V337.259C49.0628 336.667 127.595 333.384 205.697 329.67C349.744 347.485 463.507 358.089 537.198 357.227C580.606 356.689 637.031 347.27 692.918 336.99C720.942 341.457 745.846 345.763 764.027 348.831C810.77 356.635 948.201 366.001 1003.87 366.001C1131.78 366.001 1253.88 353.675 1362.05 334.083C1361.95 303.512 1361.95 269.334 1361.95 159.372Z" fill="#0D315C"/>
<path d="M521.492 317.989C573.775 319.389 639.183 328.431 692.918 336.989C749.235 326.601 804.96 315.298 846.109 311.261C1021.57 293.93 1071.11 326.386 1184.12 331.822C1254.05 335.159 1304.71 332.898 1362 321.972V235.424C1306.87 230.741 1202.46 212.011 1122.21 143.709C999.515 39.2912 943.306 12.6485 836.212 23.0364C683.505 86.4944 653.221 255.339 410.31 269.71C381.372 271.432 349.744 269.225 317.685 265.296C221.564 280.205 108.285 280.044 -15 264.65V300.443C64.5002 311.477 138.406 321.326 205.697 329.669C334.306 323.587 461.786 316.375 521.492 317.989Z" fill="#0D315C"/>
</g>
<defs>
<clipPath id="clip0">
<rect width="1377" height="366" fill="white" transform="translate(-15)"/>
</clipPath>
</defs>
</svg>
