<svg width="48" height="40" viewBox="0 0 48 40" fill="none" xmlns="http://www.w3.org/2000/svg">
<g clip-path="url(#clip0)">
<path fill-rule="evenodd" clip-rule="evenodd" d="M7.18454 32.369V29.3248C7.18454 28.9251 7.43464 28.6035 7.84864 28.6035H7.96343C8.37733 28.6035 8.62623 28.9253 8.62623 29.3248V35.7336C8.62623 37.2965 7.85402 38.5399 6.50868 39.3321C5.88484 39.6992 5.19553 39.8875 4.47234 39.8875H4.18648C2.62332 39.8875 1.38131 39.1148 0.587878 37.7702C0.219709 37.1459 0.0326843 36.4576 0.0326843 35.7336V35.448C0.0326843 33.8846 0.805293 32.6419 2.14964 31.8483C2.77398 31.4797 3.46229 31.2929 4.18648 31.2929H4.47234C5.53022 31.2929 6.42778 31.7029 7.18454 32.369ZM1.47418 35.5906C1.47418 36.7195 2.0214 37.5682 3.01062 38.1095C3.41058 38.3284 3.84491 38.4459 4.30126 38.4459C5.40936 38.4459 6.23119 37.9232 6.79814 36.9842C7.06179 36.5473 7.18454 36.0695 7.18454 35.5614C7.18454 34.5827 6.72122 33.8191 5.93267 33.2518C5.45449 32.908 4.91624 32.7355 4.32926 32.7355C3.12152 32.7355 2.25236 33.3456 1.73065 34.4296C1.55459 34.796 1.47418 35.1852 1.47418 35.5906ZM13.6276 31.2929H13.8273C15.4977 31.2929 16.7679 32.1032 17.573 33.5612C17.8949 34.1445 18.0671 34.781 18.0671 35.448V35.7336C18.0671 37.2964 17.2965 38.5417 15.949 39.3323C15.3251 39.6982 14.636 39.8875 13.913 39.8875H13.6276C12.0644 39.8875 10.8222 39.1148 10.029 37.7702C9.6608 37.1459 9.47337 36.4576 9.47337 35.7336V35.448C9.47337 33.8844 10.2489 32.6458 11.5899 31.8487C12.2135 31.4781 12.903 31.2929 13.6276 31.2929ZM10.9149 35.5906C10.9149 36.6864 11.4527 37.4925 12.3783 38.0592C12.8129 38.3255 13.2915 38.4459 13.7993 38.4459C14.8821 38.4459 15.6824 37.8969 16.2395 36.983C16.5052 36.5473 16.6253 36.0687 16.6253 35.5614C16.6253 34.5425 16.1345 33.764 15.2955 33.1998C14.8357 32.8904 14.3238 32.7355 13.7701 32.7355C12.5624 32.7355 11.6933 33.3456 11.1717 34.4296C10.9953 34.796 10.9149 35.1852 10.9149 35.5906ZM24.0604 32.8507C23.8428 32.7487 23.4352 32.7149 23.2 32.7059C21.9955 32.6606 21.1241 33.3388 20.6128 34.4014C20.4364 34.7678 20.3558 35.1558 20.3558 35.5614C20.3558 36.7962 21.004 37.6607 22.1062 38.1877C22.5089 38.3801 23.0287 38.4168 23.4687 38.4168C23.8558 38.4168 24.4026 38.1795 24.7461 38.0164L24.8057 37.9882H25.0721L25.1015 37.9942C25.4294 38.0623 25.6769 38.2702 25.6769 38.623V38.7657C25.6769 39.6433 24.0728 39.8444 23.4607 39.887C21.3007 40.0366 19.6853 38.8503 19.0694 36.7899C18.9624 36.4323 18.9143 36.0769 18.9143 35.7041V35.4188C18.9143 33.8554 19.69 32.6172 21.0308 31.8206C21.6544 31.4503 22.3439 31.2644 23.0683 31.2644H23.3539C24.1222 31.2644 24.83 31.4826 25.4644 31.9159L25.5166 31.952L25.5495 32.0063C25.6179 32.1199 25.6769 32.2511 25.6769 32.3863V32.529C25.6769 32.897 25.4016 33.0949 25.0692 33.159L25.0417 33.1638H24.9565C24.7413 33.1638 24.2524 32.941 24.0604 32.8507ZM28.7364 33.8268C29.2962 33.2662 29.8583 32.7065 30.4266 32.155C30.585 32.0012 31.1846 31.3501 31.4207 31.3501H31.6789L31.7083 31.3561C32.0371 31.4244 32.2836 31.6327 32.2836 31.9861V32.1287C32.2836 32.3698 32.0012 32.6499 31.8454 32.8149C31.5142 33.1659 31.1655 33.5056 30.8265 33.8495L29.0849 35.6175C29.8348 36.3691 30.584 37.1214 31.3278 37.8788C31.5336 38.0882 31.7394 38.298 31.942 38.5105C32.0136 38.5858 32.1193 38.6796 32.1794 38.7841C32.2439 38.8819 32.2836 38.9922 32.2836 39.1099V39.259L32.2752 39.2933C32.1942 39.6221 31.9854 39.8875 31.6209 39.8875H31.5063C31.2677 39.8875 30.9984 39.6176 30.8349 39.4636C30.4984 39.1461 30.1732 38.8123 29.8432 38.4881L28.7364 37.4016V39.1381C28.7364 39.5381 28.486 39.8595 28.0724 39.8595H27.9588C27.5448 39.8595 27.2948 39.5381 27.2948 39.1381V29.3528C27.2948 28.9527 27.545 28.6327 27.9588 28.6327H28.0724C28.486 28.6327 28.7364 28.9527 28.7364 29.3528V33.8268ZM46.7042 31.3501H46.8473C47.2798 31.3501 47.5683 31.6414 47.5683 32.0713C47.5683 32.6681 46.9978 32.8209 46.5041 32.8209C45.8566 32.8209 45.2385 33.2129 44.7923 33.6525C44.2357 34.2011 43.9921 34.9038 43.9921 35.6763V39.1663C43.9921 39.5665 43.7424 39.8875 43.3278 39.8875H43.2142C42.7999 39.8875 42.5502 39.5665 42.5502 39.1663V35.476C42.5502 34.0588 43.2401 32.9021 44.39 32.0907C45.0769 31.606 45.8634 31.3501 46.7042 31.3501ZM36.4578 38.2665C36.9824 38.4496 37.5806 38.4235 38.1189 38.3298C38.3941 38.2128 39.0982 37.9057 39.3572 37.9506L39.3976 37.9574L39.4348 37.9757C39.5928 38.0524 39.7439 38.1608 39.8245 38.3216C40.0132 38.6989 39.9226 39.078 39.552 39.2921L39.4286 39.3633C38.0611 40.1527 36.6066 40.0433 35.2436 39.306C34.5918 38.9538 34.0932 38.4307 33.7254 37.7932L33.6394 37.6441C32.7615 36.1238 32.88 34.5245 33.87 33.0787C34.2119 32.579 34.6586 32.1929 35.1809 31.891L35.3785 31.777C36.6663 31.0336 38.0465 31.0845 39.3693 31.737C40.0804 32.0878 40.6566 32.6109 41.0537 33.2986L41.125 33.4225C41.4135 33.9222 41.0398 34.3577 40.6541 34.6553C40.2065 35.0007 39.7546 35.4162 39.3255 35.7866C38.369 36.6123 37.4138 37.44 36.4578 38.2665ZM35.2196 37.3969C36.2896 36.4796 37.3597 35.5616 38.4266 34.6405C38.7911 34.326 39.191 33.9997 39.5528 33.669C39.2624 33.3033 38.7777 33.0397 38.3657 32.8825C37.5343 32.5656 36.7142 32.672 35.9517 33.1122C34.9534 33.6885 34.5283 34.6064 34.5657 35.7486C34.5804 36.1984 34.7014 36.6318 34.9402 37.0145C35.0243 37.1494 35.1182 37.2761 35.2196 37.3969Z" fill="white"/>
<path fill-rule="evenodd" clip-rule="evenodd" d="M27.4395 8.50836H31.6937V12.8571H33.8447C34.838 12.8571 35.8597 12.6802 36.8004 12.3614C37.2626 12.2047 37.7815 11.9866 38.2374 11.7123C37.6369 10.9282 37.3303 9.93819 37.24 8.96232C37.1175 7.63501 37.3852 5.90735 38.2836 4.86851L38.7307 4.35128L39.2636 4.77963C40.6053 5.85753 41.7336 7.36369 41.9325 9.08069C43.5479 8.6055 45.4446 8.7179 46.8685 9.53973L47.4527 9.87681L47.1452 10.4769C45.941 12.8273 43.4234 13.5553 40.962 13.4265C37.2788 22.6001 29.2601 26.9432 19.5374 26.9432C14.5143 26.9432 9.90579 25.0655 7.28147 20.6089L7.23843 20.5362L6.85611 19.7583C5.96902 17.7966 5.67438 15.6476 5.87426 13.5003L5.93424 12.8571H9.572V8.50836H13.826V4.25413H22.3345V0H27.4395V8.50836Z" fill="white"/>
<path fill-rule="evenodd" clip-rule="evenodd" d="M41.2224 10.1171C41.5076 7.9003 39.8486 6.15899 38.8197 5.33228C37.6341 6.70302 37.4499 10.2955 39.31 11.8081C38.2719 12.7301 36.0844 13.5659 33.8447 13.5659H6.58053C6.36272 15.904 6.77323 18.057 7.71065 19.8999L8.02083 20.4672C8.21722 20.8005 8.43174 21.1221 8.6636 21.4318H8.6637C9.78455 21.5037 10.818 21.5286 11.7635 21.5077H11.7639C13.622 21.4666 15.138 21.2474 16.2871 20.8492C16.4581 20.7897 16.6446 20.8805 16.7038 21.0514C16.7628 21.2223 16.6724 21.4088 16.5015 21.4681C16.3487 21.521 16.1894 21.5705 16.0249 21.6175C16.0247 21.6176 16.0245 21.6176 16.0243 21.6177C15.1196 21.876 14.1495 22.0499 12.8977 22.1271C12.9719 22.1283 12.8203 22.1382 12.8199 22.1383C12.7773 22.1409 12.7237 22.147 12.681 22.1494C12.1884 22.177 11.6566 22.1828 11.113 22.1828C10.5184 22.1828 9.93282 22.1715 9.27818 22.1383L9.26144 22.1494C11.5331 24.7027 15.0851 26.234 19.5374 26.234C28.9604 26.234 36.953 22.0569 40.4922 12.6791C43.0032 12.9368 45.4164 12.2965 46.5141 10.1537C44.7656 9.1446 42.5171 9.46634 41.2224 10.1171Z" fill="#22A0C8"/>
<path fill-rule="evenodd" clip-rule="evenodd" d="M41.2224 10.1171C41.5076 7.9003 39.8486 6.15899 38.8197 5.33228C37.6341 6.70302 37.4499 10.2955 39.31 11.8081C38.2719 12.7301 36.0844 13.5659 33.8447 13.5659H8.195C8.0837 17.1466 9.4125 19.8646 11.7635 21.5077H11.7639C13.622 21.4666 15.138 21.2474 16.2871 20.8492C16.4581 20.7897 16.6446 20.8805 16.7038 21.0514C16.7628 21.2223 16.6724 21.4088 16.5015 21.4681C16.3487 21.521 16.1894 21.5705 16.0249 21.6175C16.0247 21.6176 16.0245 21.6176 16.0243 21.6177C15.1196 21.876 14.0661 22.0722 12.8143 22.1494C12.814 22.1494 12.784 22.1204 12.7836 22.1205C15.9904 23.7655 20.6404 23.7596 25.9716 21.7117C31.9494 19.4153 37.5118 15.0401 41.393 10.036C41.3345 10.0624 41.2775 10.0895 41.2224 10.1171Z" fill="#37B1D9"/>
<path fill-rule="evenodd" clip-rule="evenodd" d="M6.63153 16.4067C6.80102 17.6591 7.16729 18.8318 7.71063 19.9L8.02081 20.4673C8.2172 20.8006 8.43173 21.1222 8.66369 21.4319C9.78474 21.5038 10.8183 21.5287 11.7639 21.5078C13.622 21.4667 15.138 21.2474 16.287 20.8493C16.4581 20.7898 16.6446 20.8806 16.7037 21.0515C16.7628 21.2223 16.6724 21.4089 16.5015 21.4682C16.3487 21.5211 16.1894 21.5706 16.0249 21.6176C16.0247 21.6177 16.0245 21.6177 16.0243 21.6178C15.1196 21.8761 14.0716 22.0611 12.8199 22.1384C12.7769 22.141 12.702 22.1415 12.6587 22.1439C12.1662 22.1716 11.6399 22.1884 11.0962 22.1884C10.5017 22.1884 9.89384 22.1771 9.23931 22.1439C11.5109 24.6972 15.0851 26.2341 19.5374 26.2341C27.6044 26.2341 34.6228 23.1722 38.6963 16.4067H6.63153Z" fill="#1B81A5"/>
<path fill-rule="evenodd" clip-rule="evenodd" d="M8.44041 16.4067C8.92267 18.6057 10.0816 20.3321 11.7639 21.5078C13.622 21.4667 15.138 21.2474 16.2871 20.8493C16.4581 20.7898 16.6446 20.8806 16.7038 21.0515C16.7628 21.2223 16.6724 21.4089 16.5015 21.4681C16.3487 21.5211 16.1894 21.5706 16.0249 21.6176C16.0247 21.6177 16.0245 21.6177 16.0243 21.6178C15.1196 21.8761 14.0494 22.0611 12.7977 22.1384C16.0043 23.7831 20.6408 23.7595 25.9716 21.7118C29.1965 20.4727 32.3003 18.6282 35.0849 16.4067H8.44041Z" fill="#1D91B4"/>
<path fill-rule="evenodd" clip-rule="evenodd" d="M10.2811 9.21729H13.9679V12.9044H10.2811V9.21729ZM10.5881 9.52458H10.8791V12.5973H10.5881V9.52458ZM11.1352 9.52458H11.4378V12.5973H11.1352V9.52458ZM11.6936 9.52458H11.9963V12.5973H11.6936V9.52458ZM12.2524 9.52458H12.555V12.5973H12.2524V9.52458ZM12.8111 9.52458H13.1137V12.5973H12.8111V9.52458ZM13.3697 9.52458H13.6608V12.5973H13.3697V9.52458Z" fill="#23A3C2"/>
<path fill-rule="evenodd" clip-rule="evenodd" d="M14.535 4.96313H18.2223V8.65001H14.535V4.96313ZM14.8425 5.27042H15.1332V8.34282H14.8425V5.27042ZM15.3895 5.27042H15.6919V8.34282H15.3895V5.27042ZM15.9479 5.27042H16.2505V8.34282H15.9479V5.27042ZM16.5066 5.27042H16.8092V8.34282H16.5066V5.27042ZM17.0653 5.27042H17.368V8.34282H17.0653V5.27042ZM17.6238 5.27042H17.9152V8.34282H17.6238V5.27042Z" fill="#23A3C2"/>
<path fill-rule="evenodd" clip-rule="evenodd" d="M14.535 9.21729H18.2223V12.9044H14.535V9.21729ZM14.8425 9.52458H15.1332V12.5973H14.8425V9.52458ZM15.3895 9.52458H15.6919V12.5973H15.3895V9.52458ZM15.9479 9.52458H16.2505V12.5973H15.9479V9.52458ZM16.5066 9.52458H16.8092V12.5973H16.5066V9.52458ZM17.0653 9.52458H17.368V12.5973H17.0653V9.52458ZM17.6238 9.52458H17.9152V12.5973H17.6238V9.52458Z" fill="#34BBDE"/>
<path fill-rule="evenodd" clip-rule="evenodd" d="M18.7893 9.21729H22.4764V12.9044H18.7893V9.21729ZM19.0966 9.52458H19.3873V12.5973H19.0966V9.52458ZM19.6435 9.52458H19.9461V12.5973H19.6435V9.52458ZM20.2022 9.52458H20.5048V12.5973H20.2022V9.52458ZM20.7609 9.52458H21.0635V12.5973H20.7609V9.52458ZM21.3195 9.52458H21.6223V12.5973H21.3195V9.52458ZM21.8781 9.52458H22.1691V12.5973H21.8781V9.52458Z" fill="#23A3C2"/>
<path fill-rule="evenodd" clip-rule="evenodd" d="M18.7893 4.96313H22.4764V8.65001H18.7893V4.96313ZM19.0966 5.27042H19.3873V8.34282H19.0966V5.27042ZM19.6435 5.27042H19.9461V8.34282H19.6435V5.27042ZM20.2022 5.27042H20.5048V8.34282H20.2022V5.27042ZM20.7609 5.27042H21.0635V8.34282H20.7609V5.27042ZM21.3195 5.27042H21.6223V8.34282H21.3195V5.27042ZM21.8781 5.27042H22.1691V8.34282H21.8781V5.27042Z" fill="#34BBDE"/>
<path fill-rule="evenodd" clip-rule="evenodd" d="M23.0435 9.21729H26.7305V12.9044H23.0435V9.21729ZM23.3508 9.52458H23.6417V12.5973H23.3508V9.52458ZM23.8979 9.52458H24.2005V12.5973H23.8979V9.52458ZM24.4563 9.52458H24.7589V12.5973H24.4563V9.52458ZM25.0151 9.52458H25.3177V12.5973H25.0151V9.52458ZM25.5738 9.52458H25.8764V12.5973H25.5738V9.52458ZM26.1324 9.52458H26.4234V12.5973H26.1324V9.52458Z" fill="#34BBDE"/>
<path fill-rule="evenodd" clip-rule="evenodd" d="M23.0435 4.96313H26.7305V8.65001H23.0435V4.96313ZM23.3508 5.27042H23.6417V8.34282H23.3508V5.27042ZM23.8979 5.27042H24.2005V8.34282H23.8979V5.27042ZM24.4563 5.27042H24.7589V8.34282H24.4563V5.27042ZM25.0151 5.27042H25.3177V8.34282H25.0151V5.27042ZM25.5738 5.27042H25.8764V8.34282H25.5738V5.27042ZM26.1324 5.27042H26.4234V8.34282H26.1324V5.27042Z" fill="#23A3C2"/>
<path fill-rule="evenodd" clip-rule="evenodd" d="M23.0435 0.708984H26.7305V4.39606H23.0435V0.708984ZM23.3508 1.01607H23.6417V4.08877H23.3508V1.01607ZM23.8979 1.01607H24.2005V4.08877H23.8979V1.01607ZM24.4563 1.01607H24.7589V4.08877H24.4563V1.01607ZM25.0151 1.01607H25.3177V4.08877H25.0151V1.01607ZM25.5738 1.01607H25.8764V4.08877H25.5738V1.01607ZM26.1324 1.01607H26.4234V4.08877H26.1324V1.01607Z" fill="#34BBDE"/>
<path fill-rule="evenodd" clip-rule="evenodd" d="M27.2977 9.21729H30.9847V12.9044H27.2977V9.21729ZM27.6047 9.52458H27.8959V12.5973H27.6047V9.52458ZM28.1518 9.52458H28.4544V12.5973H28.1518V9.52458ZM28.7105 9.52458H29.0132V12.5973H28.7105V9.52458ZM29.269 9.52458H29.5716V12.5973H29.269V9.52458ZM29.8279 9.52458H30.1304V12.5973H29.8279V9.52458ZM30.3865 9.52458H30.6774V12.5973H30.3865V9.52458Z" fill="#23A3C2"/>
<path fill-rule="evenodd" clip-rule="evenodd" d="M17.9914 18.8821C18.5531 18.8821 19.0084 19.3376 19.0084 19.8993C19.0084 20.461 18.5531 20.9163 17.9914 20.9163C17.4296 20.9163 16.9742 20.461 16.9742 19.8993C16.9742 19.3376 17.4296 18.8821 17.9914 18.8821Z" fill="#D3ECEC"/>
<path fill-rule="evenodd" clip-rule="evenodd" d="M17.9914 19.1709C18.0844 19.1709 18.1732 19.1884 18.2551 19.2202C18.1664 19.2715 18.1063 19.3677 18.1063 19.4777C18.1063 19.6419 18.2394 19.7748 18.4036 19.7748C18.5161 19.7748 18.6138 19.7123 18.6644 19.6201C18.7 19.7061 18.7199 19.8005 18.7199 19.8996C18.7199 20.3018 18.3937 20.6279 17.9914 20.6279C17.5891 20.6279 17.2628 20.3018 17.2628 19.8996C17.2628 19.4971 17.5891 19.1709 17.9914 19.1709Z" fill="white"/>
<path fill-rule="evenodd" clip-rule="evenodd" d="M0 16.7744H47.3167C46.2865 16.5131 44.057 16.16 44.4247 14.8098C42.5514 16.9776 38.0335 16.3306 36.8933 15.2617C35.6236 17.1032 28.232 16.4033 27.7165 14.9686C26.1247 16.8367 21.1923 16.8367 19.6005 14.9686C19.0847 16.4033 11.6932 17.1032 10.4234 15.2617C9.28326 16.3306 4.76578 16.9776 2.89225 14.8098C3.25992 16.16 1.03048 16.5131 0 16.7744Z" fill="white"/>
<path fill-rule="evenodd" clip-rule="evenodd" d="M20.6953 26.212C18.1763 25.0166 16.7936 23.3917 16.0243 21.6177C15.0887 21.8848 13.9639 22.0555 12.657 22.1288C12.1647 22.1564 11.6468 22.1706 11.1033 22.1706C10.4768 22.1706 9.81654 22.152 9.12344 22.1153C11.4335 24.4239 14.2754 26.2015 19.5374 26.234C19.9259 26.234 20.3116 26.2264 20.6953 26.212Z" fill="#BDD9D7"/>
<path fill-rule="evenodd" clip-rule="evenodd" d="M16.96 23.2548C16.6115 22.7817 16.2734 22.1871 16.0249 21.6177C15.0891 21.8849 13.9641 22.0557 12.657 22.129C13.5547 22.6164 14.8388 23.0679 16.96 23.2548Z" fill="#D3ECEC"/>
</g>
<defs>
<clipPath id="clip0">
<rect width="47.6279" height="40" fill="white"/>
</clipPath>
</defs>
</svg>
