<svg width="41" height="40" viewBox="0 0 41 40" fill="none" xmlns="http://www.w3.org/2000/svg">
<g clip-path="url(#clip0)">
<path d="M20.5501 39.973C31.5528 39.973 40.4723 31.0536 40.4723 20.0508C40.4723 9.04812 31.5528 0.128662 20.5501 0.128662C9.54739 0.128662 0.62793 9.04812 0.62793 20.0508C0.62793 31.0536 9.54739 39.973 20.5501 39.973Z" fill="#1A171B"/>
<path d="M29.2202 7.48994C27.1992 7.56044 25.435 8.67424 24.122 10.2153C22.668 11.9047 21.7007 13.9086 21.0037 15.9541C19.7569 14.9323 18.7951 13.6094 16.7949 13.0326C15.249 12.5888 13.6252 12.7721 12.1319 13.8847C11.4245 14.413 10.9372 15.2118 10.7055 15.9627C10.1054 17.9138 11.3363 19.6504 11.8953 20.2738L13.1176 21.5838C13.3696 21.8406 13.9764 22.5106 13.6797 23.4712C13.3591 24.5157 12.1 25.1919 10.8085 24.7934C10.2317 24.6175 9.40289 24.1878 9.58863 23.5828C9.66525 23.3351 9.84241 23.15 9.93742 22.9361C10.0245 22.7522 10.0661 22.6142 10.0925 22.5333C10.3285 21.7628 10.0061 20.7606 9.18099 20.5062C8.41108 20.2702 7.62338 20.4571 7.31811 21.4483C6.97177 22.5744 7.51059 24.6181 10.3972 25.5082C13.779 26.5472 16.6399 24.7058 17.0457 22.3041C17.3013 20.7998 16.6221 19.6823 15.3777 18.2449L14.3638 17.1237C13.7496 16.5101 13.5387 15.4643 14.1744 14.6607C14.7108 13.9827 15.4746 13.6934 16.7257 14.0336C18.5518 14.5295 19.3658 15.7966 20.7242 16.8184C20.1633 18.658 19.7968 20.5043 19.4651 22.16L19.2628 23.3946C18.2919 28.4873 17.5508 31.2838 15.6247 32.8892C15.2367 33.165 14.682 33.5782 13.8458 33.607C13.4076 33.6205 13.266 33.3189 13.2598 33.1877C13.2494 32.88 13.5087 32.739 13.681 32.6005C13.9384 32.4601 14.3277 32.2271 14.3013 31.4811C14.2731 30.5997 13.543 29.8353 12.4875 29.8702C11.6967 29.8972 10.4916 30.6413 10.5369 32.0034C10.5841 33.4102 11.8953 34.4646 13.8722 34.3978C14.929 34.3616 17.289 33.9313 19.6147 31.1667C22.3217 27.9975 23.0787 24.3643 23.6482 21.7052L24.2838 18.1946C24.6369 18.2369 25.0145 18.2651 25.4252 18.2749C28.7967 18.346 30.483 16.5996 30.5081 15.3295C30.5247 14.5608 30.0037 13.8044 29.2742 13.8215C28.7519 13.8362 28.096 14.1838 27.9385 14.9059C27.7846 15.6145 29.0112 16.2539 28.0525 16.8748C27.3715 17.3156 26.1504 17.6263 24.431 17.3738L24.7436 15.6458C25.3817 12.3687 26.1688 8.33771 29.1547 8.23963C29.3723 8.22859 30.1685 8.24944 30.1869 8.77599C30.1925 8.95192 30.1489 8.99667 29.943 9.3994C29.7333 9.71326 29.6542 9.98052 29.6641 10.2876C29.6929 11.1244 30.3291 11.6742 31.2492 11.6411C32.4814 11.6013 32.8357 10.4016 32.8154 9.78559C32.7658 8.33832 31.2401 7.42374 29.2202 7.48994Z" fill="white"/>
</g>
<defs>
<clipPath id="clip0">
<rect width="39.8444" height="40" fill="white" transform="translate(0.62793)"/>
</clipPath>
</defs>
</svg>
