<svg width="37" height="40" viewBox="0 0 37 40" fill="none" xmlns="http://www.w3.org/2000/svg">
<g clip-path="url(#clip0)">
<path d="M18.4623 0.0065918L36.1175 9.99342V29.9737L18.4623 39.9606L0.807129 29.9737V9.99342L18.4623 0.0065918Z" fill="white"/>
<path d="M32.9662 29.2807L19.0485 37.1622V31.0329L27.7229 26.256L32.9662 29.2807ZM33.9189 28.4213V11.952L28.8288 14.8901V25.4832L33.9189 28.4213ZM3.90508 29.2807L17.8227 37.1556V31.0262L9.14833 26.256L3.90508 29.2807ZM2.95236 28.4213V11.952L8.04238 14.8901V25.4832L2.95236 28.4213ZM3.54531 10.886L17.8227 2.81128V8.74075L8.6753 13.7708L8.60202 13.8108L3.54531 10.886ZM33.3193 10.886L19.0485 2.81128V8.74075L28.1893 13.7775L28.2626 13.8174L33.3193 10.886Z" fill="#8ED6FB"/>
<path d="M17.8227 29.634L9.26831 24.9238V15.6032L17.8227 20.54V29.634ZM19.0486 29.634L27.603 24.9304V15.6032L19.0486 20.54V29.634ZM9.84127 14.5239L18.4357 9.80029L27.0234 14.5239L18.4357 19.4807L9.84127 14.5239Z" fill="#1C78C0"/>
</g>
<defs>
<clipPath id="clip0">
<rect width="35.3103" height="40" fill="white" transform="translate(0.807129)"/>
</clipPath>
</defs>
</svg>
