<svg width="80" height="33" viewBox="0 0 80 33" fill="none" xmlns="http://www.w3.org/2000/svg">
<path d="M0 5.42242e-05L6.45663 2.27149V24.9989L15.5512 19.7489L11.0923 17.6568L8.27928 10.6554L22.6087 15.6895V23.0084L6.46032 32.3226L0 28.729V5.42242e-05Z" fill="white"/>
<path d="M34.5745 16.8185V23.802H37.6603C38.9956 23.802 40.0309 23.4862 40.7663 22.8546C41.5017 22.2231 41.8694 21.357 41.8694 20.2561C41.8694 17.9644 40.3084 16.8185 37.1865 16.8185H34.5745ZM34.5745 8.50868V14.7748H36.9025C38.1475 14.7748 39.1265 14.4747 39.8392 13.8748C40.5521 13.2748 40.9084 12.4289 40.9084 11.3372C40.9084 9.45146 39.6679 8.50851 37.1865 8.50851L34.5745 8.50868ZM32.3008 25.8591V6.45142H37.8228C39.5009 6.45142 40.8317 6.86191 41.8152 7.6829C42.7986 8.50405 43.2904 9.57325 43.2904 10.8905C43.2904 11.9913 42.9926 12.9476 42.3972 13.7597C41.8016 14.5717 40.9806 15.1493 39.9341 15.492V15.5461C41.2422 15.6996 42.289 16.1935 43.0739 17.028C43.8589 17.8626 44.2514 18.9476 44.2514 20.2829C44.2514 21.9431 43.6558 23.2876 42.4648 24.3162C41.2738 25.3447 39.7716 25.8588 37.9581 25.8588L32.3008 25.8591" fill="white"/>
<path d="M49.3658 25.8591H47.1461V12.106H49.3658V25.8591ZM48.2831 8.91851C47.8861 8.91851 47.5477 8.78317 47.2681 8.51248C46.9883 8.24179 46.8485 7.89905 46.8485 7.48393C46.8485 7.06898 46.9883 6.72376 47.2681 6.44861C47.5477 6.17346 47.886 6.0358 48.2831 6.0358C48.6891 6.0358 49.0342 6.17346 49.3184 6.44861C49.6026 6.72376 49.7448 7.06881 49.7448 7.48393C49.7448 7.88104 49.6026 8.21932 49.3184 8.49893C49.0342 8.77854 48.6891 8.91835 48.2831 8.91835V8.91851" fill="white"/>
<path d="M64.4461 25.8591H62.2265V18.0564C62.2265 15.1151 61.2357 13.6443 59.0883 13.6443C57.9785 13.6443 57.0603 14.0616 56.334 14.8963C55.6077 15.731 55.2447 16.7843 55.2447 18.0564V25.8591H53.0251V12.1061H55.2447V14.3597H55.2987C56.3454 12.6092 57.8368 11.7768 59.7634 11.7768C61.2791 11.7768 62.4385 12.2663 63.2415 13.2451C64.0445 14.2242 64.4461 15.6384 64.4461 17.488V25.8591" fill="white"/>
<path d="M77.7804 19.5929V17.6596C77.7804 16.5588 77.4082 15.616 76.6639 14.8311C75.9195 14.0461 75.0568 13.6536 73.9471 13.6536C72.5757 13.6536 71.5019 14.1521 70.726 15.149C69.9499 16.1461 69.5621 17.5424 69.5621 19.3378C69.5621 20.8808 69.9342 22.0042 70.6786 22.9289C71.423 23.8539 72.4086 24.3163 73.6358 24.3163C74.8808 24.3163 75.8292 23.8742 76.6097 22.9899C77.3902 22.1056 77.7804 20.9733 77.7804 19.5929ZM79.9999 24.6876C79.9999 29.7763 77.5639 32.3207 72.6917 32.3207C70.9773 32.3207 69.5642 32.0155 68.283 31.3657L68.8652 29.4626C68.8652 29.4626 70.3699 30.4626 72.6646 30.4626C76.0751 30.4626 77.7804 28.6816 77.7804 25.0546V23.5541H77.7264C76.6707 25.3224 75.1839 26.184 73.0635 26.184C71.3402 26.184 69.9531 25.6647 68.9019 24.433C67.8507 23.2014 67.3252 21.548 67.3252 19.4729C67.3252 17.1181 67.8914 15.2457 69.0237 13.8562C70.156 12.4668 71.7056 11.772 73.6726 11.772C75.5404 11.772 76.8241 12.521 77.7264 14.0187H77.7804V12.106H79.9999V24.6876Z" fill="white"/>
</svg>
