<svg width="80" height="27" viewBox="0 0 80 27" fill="none" xmlns="http://www.w3.org/2000/svg">
<path d="M15.0273 9.32743C16.4678 9.32743 17.9083 9.32743 19.3488 9.32746C19.4135 9.32746 19.4783 9.33135 19.5427 9.32718C19.6715 9.31888 19.7246 9.38415 19.7379 9.50519C19.7651 9.75264 19.8095 9.99868 19.8266 10.2467C19.9367 11.8404 19.7505 13.3937 19.1754 14.8919C18.6637 16.2249 17.8242 17.3194 16.7443 18.2399C15.4016 19.3846 13.853 20.0629 12.1081 20.3131C10.1578 20.5926 8.24723 20.4539 6.43242 19.6657C2.86622 18.1168 0.676168 15.4311 0.109752 11.5649C-0.319981 8.63146 0.524078 6.0043 2.43401 3.7376C3.90193 1.9954 5.76282 0.870531 7.97524 0.33072C9.10653 0.0546974 10.2528 0.0114804 11.4095 0.120215C13.1798 0.286607 14.7777 0.901065 16.2135 1.94419C16.5423 2.18309 16.8553 2.44157 17.1538 2.71801C17.2547 2.81141 17.2747 2.88285 17.1685 2.99097C16.5989 3.57041 16.0364 4.15671 15.4677 4.73702C15.3503 4.85678 15.3433 4.84954 15.1778 4.70235C14.4731 4.07572 13.6832 3.59147 12.7926 3.27595C11.8935 2.95747 10.9658 2.83253 10.0154 2.87892C8.01956 2.97632 6.33603 3.75814 4.98149 5.22407C4.03152 6.25216 3.42151 7.46512 3.18188 8.84489C2.79361 11.0806 3.25746 13.126 4.66973 14.9177C5.75007 16.2883 7.16937 17.1399 8.88272 17.4796C10.3934 17.7791 11.8804 17.6774 13.3069 17.0815C14.5673 16.555 15.5912 15.7293 16.2598 14.5146C16.638 13.8275 16.8398 13.0794 16.9551 12.3071C16.9801 12.1395 16.9683 12.1282 16.7734 12.1264C16.2195 12.1213 15.6655 12.1196 15.1115 12.1193C13.6525 12.1185 12.1935 12.119 10.7345 12.119C10.6606 12.119 10.5867 12.1156 10.513 12.1191C10.3864 12.1251 10.3307 12.0754 10.3313 11.9412C10.3351 11.1287 10.3348 10.316 10.3313 9.50347C10.3308 9.3713 10.383 9.32326 10.5118 9.32629C10.7426 9.3317 10.9735 9.32746 11.2044 9.32743C12.4787 9.32739 13.753 9.32743 15.0273 9.32743Z" fill="#4486F4"/>
<path d="M59.3824 13.7822C59.3908 13.3186 59.2991 12.7658 59.0903 12.2356C58.6961 11.2346 58.038 10.482 57.0106 10.1038C55.5867 9.57972 53.9498 10.1176 53.0351 11.3925C52.4339 12.2304 52.1982 13.1703 52.2641 14.19C52.3434 15.4172 52.8347 16.44 53.8392 17.1708C55.3423 18.2645 57.4166 18.0258 58.5716 16.4821C59.1472 15.7129 59.3873 14.8389 59.3824 13.7822ZM59.1371 8.76044C59.2194 8.68768 59.1894 8.59914 59.1911 8.5205C59.1955 8.31747 59.1961 8.1142 59.1914 7.91121C59.1885 7.79048 59.2179 7.7221 59.3589 7.72279C60.1621 7.72676 60.9653 7.72576 61.7685 7.72362C61.8839 7.72331 61.9411 7.76835 61.9386 7.8855C61.9372 7.95008 61.9389 8.01474 61.9389 8.07936C61.9389 11.7999 61.9412 15.5205 61.9374 19.2411C61.9364 20.2683 61.8608 21.2887 61.5408 22.2747C60.8128 24.5186 59.2684 25.8207 56.9549 26.2149C55.9327 26.3891 54.9143 26.3598 53.9103 26.07C52.5662 25.682 51.495 24.9052 50.6565 23.7959C50.3829 23.434 50.1511 23.0458 49.9635 22.6323C49.8766 22.4406 49.8768 22.4351 50.0764 22.3513C50.7826 22.0549 51.4897 21.7607 52.1977 21.4687C52.3876 21.3904 52.3931 21.3938 52.4856 21.5827C52.8047 22.2346 53.2473 22.7807 53.8591 23.1787C54.5171 23.6067 55.2396 23.7683 56.0214 23.7073C56.582 23.6635 57.1163 23.5422 57.603 23.2545C58.3814 22.7945 58.8134 22.0859 59.0329 21.23C59.2115 20.5331 59.1965 19.8211 59.1909 19.1101C59.1906 19.0656 59.1987 19.0071 59.1495 18.9866C59.0556 18.9474 59.0223 19.0395 58.9765 19.0875C58.2498 19.8484 57.3439 20.2513 56.3174 20.3868C55.1383 20.5425 54.0112 20.3281 52.9646 19.7757C50.9492 18.7119 49.7459 17.0398 49.4258 14.7845C49.1539 12.8678 49.668 11.1398 50.8955 9.64068C51.7809 8.5593 52.9012 7.81864 54.2665 7.48926C55.6789 7.14852 57.0342 7.27996 58.2856 8.07588C58.5196 8.22473 58.7361 8.39705 58.9303 8.59697C58.9913 8.65977 59.0402 8.74486 59.1371 8.76044" fill="#4486F4"/>
<path d="M31.0193 13.729C31.0256 13.2644 30.9074 12.6723 30.6588 12.1059C29.5771 9.64206 26.3265 9.13913 24.5878 11.1671C23.4304 12.5172 23.3053 14.6742 24.2968 16.1822C25.6728 18.2749 28.5925 18.4136 30.1568 16.4559C30.7561 15.7058 31.0174 14.836 31.0193 13.729ZM27.4633 7.30695C29.8189 7.40131 31.7789 8.40722 33.054 10.5764C33.7728 11.7993 34.0099 13.1417 33.8745 14.5509C33.7415 15.9346 33.2375 17.1657 32.3144 18.2067C31.0094 19.6782 29.3494 20.4204 27.3935 20.4214C24.9165 20.4226 22.9631 19.3895 21.6575 17.2615C20.2436 14.957 20.3519 11.4165 22.6976 9.15016C23.7189 8.16349 24.9453 7.58783 26.3502 7.38477C26.6805 7.33704 27.0121 7.33166 27.4633 7.30695Z" fill="#EA4537"/>
<path d="M45.3134 13.8677C45.312 13.023 45.1127 12.2955 44.6998 11.6295C43.3596 9.46786 40.2992 9.31411 38.754 11.3308C37.6765 12.7372 37.6444 14.8486 38.6785 16.309C39.996 18.1696 42.6571 18.37 44.2274 16.7172C44.9823 15.9226 45.3146 14.956 45.3134 13.8677ZM41.6253 20.4251C38.8985 20.3199 36.8181 19.1555 35.6314 16.6401C34.4495 14.1349 35.0313 11.049 36.9996 9.14407C38.0342 8.14275 39.2804 7.56 40.7097 7.37999C42.3852 7.16897 43.9519 7.48442 45.3568 8.43432C47.052 9.58052 47.9711 11.201 48.1725 13.233C48.2966 14.4853 48.1069 15.6916 47.5357 16.8107C46.4378 18.9621 44.6489 20.1294 42.2614 20.4018C42.1514 20.4143 42.0405 20.4202 41.9298 20.4243C41.8284 20.428 41.7268 20.4251 41.6253 20.4251" fill="#FBBD07"/>
<path d="M70.7916 13.6554C70.8938 13.6205 70.9546 13.6035 71.0126 13.5794C72.7664 12.8512 74.52 12.1227 76.2732 11.3932C76.6783 11.2246 76.6878 11.1987 76.4184 10.8471C75.9646 10.2546 75.3384 9.97388 74.6162 9.88179C73.1804 9.69879 71.8098 10.5969 71.2124 11.7498C70.9093 12.3346 70.7754 12.9565 70.7916 13.6554ZM74.071 20.429C72.4661 20.3993 70.811 19.7085 69.5354 18.2091C68.5741 17.0791 68.0936 15.7485 68.0175 14.2751C67.942 12.8114 68.216 11.4184 69.0025 10.1646C70.0989 8.41635 71.6918 7.46 73.7534 7.33473C75.8847 7.20521 77.544 8.08649 78.8027 9.77988C79.3209 10.477 79.6569 11.2655 79.9649 12.0684C80.0288 12.2349 80.0224 12.2394 79.8003 12.3314C78.3505 12.9321 76.9004 13.5322 75.4502 14.1322C74.1451 14.6721 72.8398 15.2116 71.5346 15.7514C71.5005 15.7655 71.4673 15.7825 71.4324 15.7939C71.3025 15.836 71.2879 15.9101 71.3521 16.0252C71.8437 16.9065 72.5417 17.5357 73.5488 17.743C75.1092 18.0644 76.5458 17.593 77.5274 16.1985C77.65 16.0243 77.652 16.0215 77.8288 16.1382C78.4683 16.5605 79.1068 16.9842 79.7447 17.4088C79.9162 17.523 79.9187 17.5292 79.8046 17.6813C78.4669 19.4649 76.6051 20.439 74.071 20.429Z" fill="#EA4537"/>
<path d="M63.8461 10.3879C63.8461 7.28548 63.8459 4.1831 63.8463 1.08071C63.8463 0.722978 63.8117 0.745826 64.1676 0.746377C64.9432 0.747549 65.7187 0.748514 66.4943 0.752202C66.7254 0.753304 66.7255 0.757336 66.7304 0.978664C66.7314 1.02481 66.7305 1.07099 66.7305 1.11714C66.7305 7.30347 66.7309 13.4898 66.7296 19.6761C66.7296 20.0635 66.791 20.0317 66.3782 20.0325C65.6487 20.0338 64.9193 20.0329 64.1899 20.0328C64.1253 20.0328 64.0605 20.0298 63.996 20.0323C63.8951 20.036 63.8393 19.999 63.8457 19.8889C63.85 19.8153 63.8461 19.7412 63.8461 19.6674C63.8461 16.5742 63.8461 13.481 63.8461 10.3879Z" fill="#36A954"/>
</svg>
