<svg width="152" height="34" viewBox="0 0 152 34" fill="none" xmlns="http://www.w3.org/2000/svg">
<path d="M9.74726 22.1232C7.54027 22.1203 5.39942 21.3695 3.67406 19.9933C1.94869 18.6171 0.740683 16.6968 0.247162 14.5457C-0.246358 12.3946 0.00374734 10.1398 0.956665 8.14911C1.90958 6.15845 3.50905 4.54952 5.49406 3.58488C7.47906 2.62024 9.73241 2.35684 11.8864 2.83766C14.0403 3.31849 15.9678 4.51515 17.3541 6.23237C18.7404 7.94959 19.5039 10.086 19.5198 12.2929C19.5357 14.4998 18.8031 16.647 17.4417 18.384C16.5297 19.5533 15.362 20.4982 14.0283 21.1464C12.6946 21.7945 11.2301 22.1287 9.74726 22.1232ZM9.76886 6.60321C9.53248 6.60305 9.29632 6.61721 9.06166 6.64561C7.57741 6.82682 6.22201 7.57874 5.2826 8.74206C4.34319 9.90539 3.89357 11.3887 4.02898 12.8779C4.1644 14.367 4.87421 15.7449 6.00805 16.7197C7.1419 17.6945 8.61069 18.1896 10.1033 18.1001C11.5959 18.0106 12.995 17.3436 14.0042 16.2403C15.0135 15.137 15.5536 13.6841 15.5101 12.1895C15.4666 10.6949 14.843 9.27588 13.7713 8.23312C12.6996 7.19037 11.2641 6.60579 9.76886 6.60321Z" fill="#3BB873"/>
<path d="M27.2959 16.7256C26.921 16.7253 26.5537 16.6197 26.236 16.4207C25.9182 16.2218 25.6628 15.9375 25.4988 15.6004C25.3348 15.2633 25.2689 14.8868 25.3086 14.514C25.3482 14.1412 25.4919 13.7871 25.7231 13.492C26.6303 12.3056 27.0332 10.8094 26.8443 9.32796C26.6554 7.84649 25.8899 6.49924 24.7141 5.5785C23.5382 4.65777 22.0467 4.2378 20.5631 4.40971C19.0796 4.58162 17.7237 5.33155 16.7895 6.4968C16.6296 6.70923 16.429 6.88765 16.1994 7.02164C15.9697 7.15562 15.7157 7.24248 15.4521 7.27712C15.1885 7.31176 14.9206 7.2935 14.6642 7.2234C14.4077 7.1533 14.1678 7.03277 13.9585 6.86886C13.7491 6.70495 13.5746 6.50094 13.445 6.26878C13.3155 6.03661 13.2335 5.78095 13.2039 5.51673C13.1743 5.25251 13.1977 4.98504 13.2727 4.72997C13.3477 4.4749 13.4728 4.23735 13.6407 4.03119C15.2228 2.01141 17.5424 0.702828 20.0893 0.393318C22.6362 0.0838078 25.2017 0.798724 27.2215 2.38079C29.2413 3.96286 30.5499 6.28249 30.8594 8.82939C31.1689 11.3763 30.454 13.9418 28.8719 15.9616C28.6844 16.2002 28.445 16.3929 28.172 16.5253C27.8989 16.6576 27.5994 16.7262 27.2959 16.7256Z" fill="#3BB873"/>
<path d="M12.9504 33.236C12.4532 33.2318 11.9625 33.1228 11.5104 32.916L11.168 32.7632L3.70477 25.216C3.35913 24.8341 3.17415 24.3336 3.18835 23.8188C3.20255 23.3039 3.41484 22.8144 3.781 22.4521C4.14717 22.0899 4.63896 21.8829 5.15396 21.8742C5.66895 21.8655 6.16744 22.0559 6.54557 22.4056L12.9648 28.8968C13.3496 28.32 13.8392 27.332 14.1952 26.6152C15.2216 24.5472 16.4976 21.9752 18.604 20.1016C21.2136 17.7816 24.4832 17.084 28.3224 18.0304C28.8374 18.1577 29.2808 18.4844 29.555 18.9386C29.8292 19.3928 29.9117 19.9374 29.7844 20.4524C29.6571 20.9675 29.3304 21.4109 28.8762 21.685C28.422 21.9592 27.8774 22.0417 27.3624 21.9144C24.008 21.0872 22.2728 22.1896 21.26 23.0904C19.7336 24.4504 18.6936 26.5432 17.776 28.3928C17.1128 29.7296 16.54 30.884 15.812 31.7528C15.2744 32.3928 14.6976 32.8152 14.052 33.0472C13.6984 33.1732 13.3257 33.2371 12.9504 33.236Z" fill="#3BB873"/>
<path d="M53.2377 21.674C52.808 22.2143 52.2123 22.6212 51.4506 22.8947C50.6954 23.1616 49.8262 23.295 48.8431 23.295C47.2937 23.295 46.0502 22.81 45.1127 21.84C44.1752 20.8699 43.6999 19.5646 43.6869 17.924V17.045C43.6869 15.3393 44.1198 14.0079 44.9857 13.0509C45.8581 12.0874 47.0821 11.6056 48.6576 11.6056C49.9597 11.6056 51.0046 11.9116 51.7924 12.5236C52.5801 13.1355 53.0619 14.0307 53.2377 15.2091H51.4408C51.1934 13.7963 50.2722 13.09 48.6771 13.09C47.642 13.09 46.8542 13.4253 46.3138 14.0958C45.7735 14.7664 45.5033 15.7495 45.5033 17.045V17.8654C45.5033 19.1023 45.8028 20.0724 46.4017 20.7755C47.0072 21.4721 47.8308 21.8204 48.8724 21.8204C50.0573 21.8204 50.9135 21.5795 51.4408 21.0978V18.7736H48.6967V17.3673H53.2377V21.674Z" fill="white"/>
<path d="M60.2787 18.754H57.5541V23.1388H55.7474V11.7618H59.9076C61.2943 11.7618 62.362 12.0646 63.1107 12.67C63.8659 13.2755 64.2435 14.1316 64.2435 15.2384C64.2435 16.7228 63.4786 17.7547 61.9486 18.3341L64.7611 23.0411V23.1388H62.8275L60.2787 18.754ZM57.5541 17.2794H59.9564C60.7181 17.2794 61.3204 17.1036 61.7631 16.7521C62.2123 16.394 62.4369 15.9122 62.4369 15.3068C62.4369 14.6557 62.2188 14.1512 61.7826 13.7931C61.3464 13.435 60.7181 13.256 59.8978 13.256H57.5541V17.2794Z" fill="white"/>
<path d="M73.472 18.0021H68.2767V21.6642H74.3217V23.1388H66.4701V11.7618H74.2631V13.256H68.2767V16.5177H73.472V18.0021Z" fill="white"/>
<path d="M83.2181 18.0021H78.0228V21.6642H84.0677V23.1388H76.2162V11.7618H84.0092V13.256H78.0228V16.5177H83.2181V18.0021Z" fill="white"/>
<path d="M95.474 23.1388H93.6771L87.7689 14.5841V23.1388H85.9623V11.7618H87.7689L93.6771 20.3263V11.7618H95.474V23.1388Z" fill="white"/>
<path d="M107.31 19.4572C107.18 20.6746 106.704 21.6186 105.884 22.2892C105.064 22.9598 103.973 23.295 102.613 23.295C101.154 23.295 99.9825 22.8165 99.097 21.8595C98.2181 20.896 97.7787 19.5711 97.7787 17.8849V16.9669C97.7787 15.8992 97.9773 14.9617 98.3744 14.1544C98.778 13.3406 99.3542 12.7124 100.103 12.2697C100.858 11.8269 101.731 11.6056 102.72 11.6056C104.048 11.6056 105.113 11.9506 105.913 12.6407C106.721 13.3243 107.186 14.2749 107.31 15.4923H105.503C105.386 14.646 105.096 14.034 104.634 13.6564C104.178 13.2788 103.54 13.09 102.72 13.09C101.724 13.09 100.953 13.422 100.406 14.0861C99.8653 14.7436 99.5918 15.6876 99.5853 16.9181V17.9532C99.5853 19.1837 99.8425 20.1375 100.357 20.8146C100.878 21.4851 101.63 21.8204 102.613 21.8204C103.492 21.8204 104.159 21.6414 104.615 21.2833C105.077 20.9187 105.373 20.31 105.503 19.4572H107.31Z" fill="white"/>
<path d="M118.911 23.1388H117.105V18.2755H111.206V23.1388H109.4V11.7618H111.206V16.7911H117.105V11.7618H118.911V23.1388Z" fill="white"/>
<path d="M128.628 18.0021H123.433V21.6642H129.478V23.1388H121.626V11.7618H129.419V13.256H123.433V16.5177H128.628V18.0021Z" fill="white"/>
<path d="M138.208 20.4142H133.13L132.056 23.1388H130.21L134.888 11.7618H136.509L141.119 23.1388H139.283L138.208 20.4142ZM133.716 18.9396H137.632L135.689 13.9689L133.716 18.9396Z" fill="white"/>
<path d="M144.488 18.8615V23.1388H142.681V11.7618H147.242C148.57 11.7618 149.628 12.0874 150.415 12.7384C151.203 13.3829 151.597 14.2521 151.597 15.3458C151.597 16.4526 151.216 17.3152 150.454 17.9337C149.693 18.5522 148.615 18.8615 147.222 18.8615H144.488ZM144.488 17.3771H147.242C148.049 17.3771 148.674 17.2045 149.117 16.8595C149.559 16.5144 149.781 16.0164 149.781 15.3654C149.781 14.7404 149.559 14.2358 149.117 13.8517C148.674 13.4611 148.065 13.2625 147.29 13.256H144.488V17.3771Z" fill="white"/>
</svg>
