<svg width="80" height="33" viewBox="0 0 80 33" fill="none" xmlns="http://www.w3.org/2000/svg">
<path d="M35.2063 12.7477C33.3756 12.7477 31.4668 14.0839 31.4668 14.0839V13.2248C31.4668 13.0367 31.3916 12.9611 31.2033 12.9611H28.8667C28.6783 12.9611 28.5652 13.0745 28.5652 13.2248V31.5391C28.5652 31.728 28.6408 31.8412 28.8291 31.8412H31.2033C31.3538 31.8412 31.4668 31.728 31.4668 31.5391V15.8626C31.4668 15.8626 32.5688 15.1644 33.9071 15.1644C35.1813 15.1644 36.1874 15.7968 36.1874 17.0939C36.1874 17.9975 36.1874 31.5391 36.1874 31.5391C36.1874 31.728 36.3003 31.8412 36.4887 31.8412H38.8249C39.0134 31.8412 39.0886 31.6904 39.0886 31.5391V16.273C39.0886 13.9737 37.6751 12.7477 35.2063 12.7477" fill="white"/>
<path d="M45.06 22.5246C45.06 18.6809 46.1851 14.8747 48.4824 14.8747C49.2603 14.8747 50.0078 15.1308 50.7437 15.7153V29.2571C50.1682 29.57 49.4441 29.8589 48.6619 29.8589C46.1639 29.8589 45.06 26.896 45.06 22.5246V22.5246ZM53.3817 3.56105H51.0452C50.8569 3.56105 50.7437 3.6741 50.7437 3.82495V13.0643C49.8467 12.7201 49.0301 12.5383 48.3701 12.5383C44.5753 12.5383 41.9702 16.166 41.9702 23.1416C41.9702 29.1177 44.5043 32.3226 47.8115 32.3226C49.2057 32.3226 50.3563 31.5238 51.1988 30.7746L51.7089 31.6393C51.795 31.7887 51.8654 31.8401 52.0382 31.8401L53.3817 31.8412C53.5324 31.8412 53.6456 31.728 53.6456 31.5391V3.82495C53.6456 3.63629 53.57 3.56105 53.3817 3.56105" fill="white"/>
<path d="M62.145 20.6982C61.2844 20.6982 59.7182 20.9109 59.7182 20.9109C59.7182 20.9109 59.739 20.2866 59.8139 19.6877C60.1508 16.5061 60.9095 14.8969 62.2195 14.8969C63.3588 14.8969 64.1387 16.5434 64.3263 19.4257C64.3633 20.0246 64.3633 20.6982 64.3633 20.6982H62.145ZM62.3322 12.5761C58.4411 12.5761 56.5204 17.6665 56.5204 23.2059C56.5204 29.004 59.2596 32.2539 62.7814 32.2539C64.3298 32.2539 65.8706 31.6446 66.8811 31.0831C67.0359 30.997 67.0638 30.8756 67.0267 30.7259L66.7312 29.5008C66.6943 29.351 66.6191 29.2763 66.4319 29.2763C66.3494 29.2763 65.0731 29.6498 63.8311 29.6498C60.9488 29.6498 59.6271 27.0877 59.6271 23.6849C59.6271 23.2359 59.6271 22.8577 59.6271 22.8577C59.6271 22.8577 61.0596 23.056 61.9202 23.056H67.3577V21.4843C67.3577 15.683 65.3262 12.5761 62.3322 12.5761" fill="white"/>
<path d="M22.0473 28.8737C21.3781 29.5201 20.5762 29.8589 19.8547 29.8589C19.1334 29.8589 18.576 29.5257 18.1288 28.9085C17.5848 28.1576 17.3308 27.0014 17.3308 25.7202C17.3308 23.694 18.0789 21.6149 19.6647 21.6149C20.4493 21.6149 21.3114 21.8704 22.0473 22.4555V28.8737ZM24.1276 14.9551C23.2636 13.2527 21.7243 12.5087 19.9616 12.5087C18.8291 12.5087 17.0616 12.9417 15.8811 13.4723C15.6502 13.576 15.504 13.6675 15.504 13.8493C15.504 13.9573 15.5578 14.0814 15.6171 14.1887L16.4123 15.8914C16.4945 16.0836 16.6255 16.1274 16.7341 16.1274C16.8517 16.1274 16.9473 16.0718 17.0529 16.0041C18.2044 15.2683 19.0479 14.8638 19.7156 14.8638C20.5987 14.8638 21.1988 15.4498 21.5686 16.3309C21.913 17.1521 22.0465 18.2866 22.0465 19.5975C22.0465 19.7648 22.0473 19.9828 22.0473 19.9828C21.3217 19.5288 20.0648 19.2786 19.4373 19.2786C16.0614 19.2786 14.2407 22.4859 14.2407 25.916C14.2407 29.6118 16.3685 32.3226 18.9255 32.3226C20.3497 32.3226 21.6388 31.4868 22.5022 30.433C22.5022 30.433 22.9617 31.5289 23.0219 31.6604C23.0824 31.7916 23.1461 31.8401 23.3189 31.8401L24.6853 31.8412C24.8356 31.8412 24.9489 31.728 24.9489 31.5391V20.9151C24.9489 18.3048 24.817 16.3133 24.1276 14.9551" fill="white"/>
<path d="M79.6974 12.9588C79.3776 12.9588 77.8473 12.9588 77.6149 12.9588C77.3821 12.9588 77.2636 13.0806 77.2037 13.2385C77.0716 13.5848 76.1915 15.903 75.8303 16.8633C75.5731 17.5493 74.8802 19.514 74.8802 19.514L74.7995 19.5135C74.7971 19.5064 74.2894 18.0844 74.0147 17.3722C73.7923 16.7949 72.6323 13.7387 72.4855 13.3618C72.4071 13.1594 72.3194 12.9588 72.021 12.9588C71.6184 12.9588 69.9919 12.9588 69.7409 12.9588C69.4902 12.9588 69.3485 13.2335 69.4293 13.4041C69.5105 13.5753 73.1435 21.85 73.1435 21.85C73.1435 21.85 69.242 31.1158 69.128 31.3236C69.014 31.5318 69.1572 31.8398 69.4351 31.8398C69.712 31.8398 71.0937 31.8398 71.4333 31.8398C71.7733 31.8398 71.9074 31.6617 72.0095 31.3747C72.2967 30.5699 72.7243 29.4512 73.3299 27.7219C73.7309 26.576 74.3652 24.5648 74.3652 24.5648H74.435C74.435 24.5648 75.1301 26.6146 75.3884 27.2849C76.0412 28.9794 76.8764 31.1932 76.9649 31.427C77.0571 31.6715 77.1863 31.8398 77.4201 31.8398C77.654 31.8398 79.4611 31.8398 79.686 31.8398C79.9103 31.8398 80.0138 31.584 79.9084 31.3611C79.6561 30.8299 77.5043 25.6011 76.0101 22.1635C76.0101 22.1635 79.8883 13.6056 79.9637 13.3939C80.0393 13.1821 80.017 12.9588 79.6974 12.9588Z" fill="white"/>
<path d="M16.6009 0.805283H13.974C13.7415 0.805283 13.5961 0.919448 13.5626 1.08501C13.5292 1.25133 9.62327 13.1607 9.33946 14.1528C9.13809 14.8562 8.48183 17.3355 8.3244 17.9309L6.96601 14.2221C6.63581 13.2013 3.47221 4.36282 3.37954 4.00989C3.32832 3.81583 3.23913 3.57447 2.89895 3.57447H0.334533C0.0836931 3.57447 -0.0581682 3.84954 0.0228018 4.02014C0.0873307 4.15665 4.71958 16.4803 6.59098 21.188V31.5391C6.59098 31.728 6.66658 31.8412 6.85485 31.8412H9.28366C9.43425 31.8412 9.54732 31.728 9.54732 31.5391V21.727V21.2698C11.1073 16.9128 16.8055 1.41428 16.8676 1.24071C16.9429 1.02858 16.9208 0.805283 16.6009 0.805283" fill="#ED1D24"/>
</svg>
